<svg width="1436" height="827" viewBox="0 0 1436 827" fill="none" xmlns="http://www.w3.org/2000/svg">
<rect width="1435" height="827" fill="white"/>
<rect x="1205" y="290.727" width="30.415" height="213.581" rx="15.2075" fill="#673C0F"/>
<rect x="1205" y="213" width="30.415" height="71.3063" rx="15.2075" fill="#673C0F"/>
<circle cx="1220.21" cy="311.342" r="9.46245" fill="white"/>
<rect x="205" y="460.727" width="30.415" height="213.581" rx="15.2075" fill="#673C0F"/>
<rect x="205" y="383" width="30.415" height="71.3063" rx="15.2075" fill="#673C0F"/>
<circle cx="220.208" cy="481.342" r="9.46245" fill="white"/>
<rect x="645" y="334.727" width="30.415" height="213.581" rx="15.2075" fill="#673C0F"/>
<rect x="645" y="257" width="30.415" height="71.3063" rx="15.2075" fill="#673C0F"/>
<circle cx="660.208" cy="355.342" r="9.46245" fill="white"/>
<rect x="1285" y="353.727" width="30.415" height="213.581" rx="15.2075" fill="#E84E1A"/>
<rect x="1285" y="276" width="30.415" height="71.3063" rx="15.2075" fill="#E84E1A"/>
<circle cx="1300.21" cy="374.342" r="9.46245" fill="white"/>
<rect x="365" y="393.727" width="30.415" height="213.581" rx="15.2075" fill="#E84E1A"/>
<rect x="365" y="316" width="30.415" height="71.3063" rx="15.2075" fill="#E84E1A"/>
<circle cx="380.208" cy="414.342" r="9.46245" fill="white"/>
<rect x="845" y="330.727" width="30.415" height="213.581" rx="15.2075" fill="#E84E1A"/>
<rect x="845" y="253" width="30.415" height="71.3063" rx="15.2075" fill="#E84E1A"/>
<circle cx="860.208" cy="351.342" r="9.46245" fill="white"/>
<rect x="965" y="198.727" width="30.415" height="213.581" rx="15.2075" fill="#E84E1A"/>
<rect x="965" y="121" width="30.415" height="71.3063" rx="15.2075" fill="#E84E1A"/>
<circle cx="980.208" cy="219.342" r="9.46245" fill="white"/>
<rect x="685" y="353.727" width="30.415" height="213.581" rx="15.2075" fill="#E84E1A"/>
<rect x="685" y="276" width="30.415" height="71.3063" rx="15.2075" fill="#E84E1A"/>
<circle cx="700.208" cy="374.342" r="9.46245" fill="white"/>
<rect x="45" y="429.727" width="30.415" height="213.581" rx="15.2075" fill="#E84E1A"/>
<rect x="45" y="352" width="30.415" height="71.3063" rx="15.2075" fill="#E84E1A"/>
<circle cx="60.2075" cy="450.342" r="9.46245" fill="white"/>
<rect x="1085" y="189.727" width="30.415" height="213.581" rx="15.2075" fill="#E84E1A"/>
<rect x="1085" y="112" width="30.415" height="71.3063" rx="15.2075" fill="#E84E1A"/>
<circle cx="1100.21" cy="210.342" r="9.46245" fill="white"/>
<rect x="1325" y="376.727" width="30.415" height="213.581" rx="15.2075" fill="#93C120"/>
<rect x="1325" y="299" width="30.415" height="71.3063" rx="15.2075" fill="#93C120"/>
<circle cx="1340.21" cy="397.342" r="9.46245" fill="white"/>
<rect x="445" y="371.727" width="30.415" height="213.581" rx="15.2075" fill="#93C120"/>
<rect x="445" y="294" width="30.415" height="71.3063" rx="15.2075" fill="#93C120"/>
<circle cx="460.208" cy="392.342" r="9.46245" fill="white"/>
<rect x="805" y="321.727" width="30.415" height="213.581" rx="15.2075" fill="#93C120"/>
<rect x="805" y="244" width="30.415" height="71.3063" rx="15.2075" fill="#93C120"/>
<circle cx="820.208" cy="342.342" r="9.46245" fill="white"/>
<rect x="245" y="442.727" width="30.415" height="213.581" rx="15.2075" fill="#93C120"/>
<rect x="245" y="365" width="30.415" height="71.3063" rx="15.2075" fill="#93C120"/>
<circle cx="260.208" cy="463.342" r="9.46245" fill="white"/>
<rect x="1245" y="328.727" width="30.415" height="213.581" rx="15.2075" fill="#0F70B7"/>
<rect x="1245" y="251" width="30.415" height="71.3063" rx="15.2075" fill="#0F70B7"/>
<circle cx="1260.21" cy="349.342" r="9.46245" fill="white"/>
<rect x="405" y="383.727" width="30.415" height="213.581" rx="15.2075" fill="#0F70B7"/>
<rect x="405" y="306" width="30.415" height="71.3063" rx="15.2075" fill="#0F70B7"/>
<circle cx="420.208" cy="404.342" r="9.46245" fill="white"/>
<rect x="605" y="321.727" width="30.415" height="213.581" rx="15.2075" fill="#0F70B7"/>
<rect x="605" y="244" width="30.415" height="71.3063" rx="15.2075" fill="#0F70B7"/>
<circle cx="620.208" cy="342.342" r="9.46245" fill="white"/>
<rect x="85" y="443.727" width="30.415" height="213.581" rx="15.2075" fill="#0F70B7"/>
<rect x="85" y="366" width="30.415" height="71.3063" rx="15.2075" fill="#0F70B7"/>
<circle cx="100.208" cy="464.342" r="9.46245" fill="white"/>
<rect x="885" y="285.727" width="30.415" height="213.581" rx="15.2075" fill="#0F70B7"/>
<rect x="885" y="208" width="30.415" height="71.3063" rx="15.2075" fill="#0F70B7"/>
<circle cx="900.208" cy="306.342" r="9.46245" fill="white"/>
<rect x="1165" y="252.727" width="30.415" height="213.581" rx="15.2075" fill="#066732"/>
<rect x="1165" y="175" width="30.415" height="71.3063" rx="15.2075" fill="#066732"/>
<circle cx="1180.21" cy="273.342" r="9.46245" fill="white"/>
<rect x="565" y="332.727" width="30.415" height="213.581" rx="15.2075" fill="#066732"/>
<rect x="565" y="255" width="30.415" height="71.3063" rx="15.2075" fill="#066732"/>
<circle cx="580.208" cy="353.342" r="9.46245" fill="white"/>
<rect x="285" y="424.727" width="30.415" height="213.581" rx="15.2075" fill="#066732"/>
<rect x="285" y="347" width="30.415" height="71.3063" rx="15.2075" fill="#066732"/>
<circle cx="300.208" cy="445.342" r="9.46245" fill="white"/>
<rect x="5" y="401.727" width="30.415" height="213.581" rx="15.2075" fill="#066732"/>
<rect x="5" y="324" width="30.415" height="71.3063" rx="15.2075" fill="#066732"/>
<circle cx="20.2075" cy="422.342" r="9.46245" fill="white"/>
<rect x="925" y="236.727" width="30.415" height="213.581" rx="15.2075" fill="#066732"/>
<rect x="925" y="159" width="30.415" height="71.3063" rx="15.2075" fill="#066732"/>
<circle cx="940.208" cy="257.342" r="9.46245" fill="white"/>
<rect x="1125" y="215.727" width="30.415" height="213.581" rx="15.2075" fill="#BD1522"/>
<rect x="1125" y="138" width="30.415" height="71.3063" rx="15.2075" fill="#BD1522"/>
<circle cx="1140.21" cy="236.342" r="9.46245" fill="white"/>
<rect x="325" y="412.727" width="30.415" height="213.581" rx="15.2075" fill="#BD1522"/>
<rect x="325" y="335" width="30.415" height="71.3063" rx="15.2075" fill="#BD1522"/>
<circle cx="340.208" cy="433.342" r="9.46245" fill="white"/>
<rect x="765" y="341.727" width="30.415" height="213.581" rx="15.2075" fill="#BD1522"/>
<rect x="765" y="264" width="30.415" height="71.3063" rx="15.2075" fill="#BD1522"/>
<circle cx="780.208" cy="362.342" r="9.46245" fill="white"/>
<rect x="165" y="466.727" width="30.415" height="213.581" rx="15.2075" fill="#BD1522"/>
<rect x="165" y="389" width="30.415" height="71.3063" rx="15.2075" fill="#BD1522"/>
<circle cx="180.208" cy="487.342" r="9.46245" fill="white"/>
<rect x="1365" y="409.727" width="30.415" height="213.581" rx="15.2075" fill="#F29200"/>
<rect x="1365" y="332" width="30.415" height="71.3063" rx="15.2075" fill="#F29200"/>
<circle cx="1380.21" cy="430.342" r="9.46245" fill="white"/>
<rect x="485" y="353.727" width="30.415" height="213.581" rx="15.2075" fill="#F29200"/>
<rect x="485" y="276" width="30.415" height="71.3063" rx="15.2075" fill="#F29200"/>
<circle cx="500.208" cy="374.342" r="9.46245" fill="white"/>
<rect x="1045" y="147.727" width="30.415" height="213.581" rx="15.2075" fill="#F29200"/>
<rect x="1045" y="70" width="30.415" height="71.3063" rx="15.2075" fill="#F29200"/>
<circle cx="1060.21" cy="168.342" r="9.46245" fill="white"/>
<rect x="725" y="365.727" width="30.415" height="213.581" rx="15.2075" fill="#F29200"/>
<rect x="725" y="288" width="30.415" height="71.3063" rx="15.2075" fill="#F29200"/>
<circle cx="740.208" cy="386.342" r="9.46245" fill="white"/>
<rect x="125" y="454.727" width="30.415" height="213.581" rx="15.2075" fill="#F29200"/>
<rect x="125" y="377" width="30.415" height="71.3063" rx="15.2075" fill="#F29200"/>
<circle cx="140.208" cy="475.342" r="9.46245" fill="white"/>
<rect x="1405" y="438.727" width="30.415" height="213.581" rx="15.2075" fill="#A3185C"/>
<rect x="1405" y="361" width="30.415" height="71.3063" rx="15.2075" fill="#A3185C"/>
<circle cx="1420.21" cy="459.342" r="9.46245" fill="white"/>
<rect x="525" y="344.727" width="30.415" height="213.581" rx="15.2075" fill="#A3185C"/>
<rect x="525" y="267" width="30.415" height="71.3063" rx="15.2075" fill="#A3185C"/>
<circle cx="540.208" cy="365.342" r="9.46245" fill="white"/>
<rect x="1005" y="180.727" width="30.415" height="213.581" rx="15.2075" fill="#A3185C"/>
<rect x="1005" y="103" width="30.415" height="71.3063" rx="15.2075" fill="#A3185C"/>
<circle cx="1020.21" cy="201.342" r="9.46245" fill="white"/>
</svg>
