<svg xmlns="http://www.w3.org/2000/svg" viewBox="0 0 96.22 20.71"><defs><style>.cls-1{fill:#3c3c3b;}</style></defs><title>Asset 5</title><g id="Layer_2" data-name="Layer 2"><g id="Livello_1" data-name="Livello 1"><path class="cls-1" d="M28,8.77a6,6,0,0,0-3.2-1.29c-6.34-.12-12.69-.08-19,0a4.5,4.5,0,0,0-2.21.7,12.08,12.08,0,0,0-2.43,2A3.49,3.49,0,0,0,.07,12.09c-.12,2.84,0,5.68,0,8.6H3.43c0-.51,0-.9,0-1.29-.13-2.75,3.21-6.3,6-6.31,3.8,0,7.61,0,11.42,0a5.26,5.26,0,0,1,3.67,1.41c1.83,1.62,3.1,3.5,2.65,6.15h3.58c0-2.24-.17-4.39,0-6.51C31,11.68,29.75,10.07,28,8.77Z"/><path class="cls-1" d="M60.27,19.33a6,6,0,0,1-3.2,1.28c-6.34.12-12.69.08-19,0a4.5,4.5,0,0,1-2.2-.7,12.08,12.08,0,0,1-2.43-2A3.51,3.51,0,0,1,32.33,16c-.11-2.84,0-5.69,0-8.61H35.7c0,.51,0,.9,0,1.29-.13,2.75,3.22,6.3,6,6.31,3.81,0,7.61,0,11.42,0a5.29,5.29,0,0,0,3.68-1.42c1.83-1.61,3.09-3.5,2.65-6.15H63c0,2.24-.16,4.39.05,6.51C63.27,16.41,62,18,60.27,19.33Z"/><path class="cls-1" d="M28,8.77a6,6,0,0,0-3.2-1.29c-6.34-.12-12.69-.08-19,0a4.5,4.5,0,0,0-2.21.7,12.08,12.08,0,0,0-2.43,2A3.49,3.49,0,0,0,.07,12.09c-.12,2.84,0,5.68,0,8.6H3.43c0-.51,0-.9,0-1.29-.13-2.75,3.21-6.3,6-6.31,3.8,0,7.61,0,11.42,0a5.26,5.26,0,0,1,3.67,1.41c1.83,1.62,3.1,3.5,2.65,6.15h3.58c0-2.24-.17-4.39,0-6.51C31,11.68,29.75,10.07,28,8.77Z"/><path class="cls-1" d="M60.27,19.33a6,6,0,0,1-3.2,1.28c-6.34.12-12.69.08-19,0a4.5,4.5,0,0,1-2.2-.7,12.08,12.08,0,0,1-2.43-2A3.51,3.51,0,0,1,32.33,16c-.11-2.84,0-5.69,0-8.61H35.7c0,.51,0,.9,0,1.29-.13,2.75,3.22,6.3,6,6.31,3.81,0,7.61,0,11.42,0a5.29,5.29,0,0,0,3.68-1.42c1.83-1.61,3.09-3.5,2.65-6.15H63c0,2.24-.16,4.39.05,6.51C63.27,16.41,62,18,60.27,19.33Z"/><path class="cls-1" d="M95.49,10.1A6.45,6.45,0,0,0,91.9,7.46H69.41a6,6,0,0,0-4.18,2.73,7,7,0,0,0-.74,1.23c1.68,0,3.32.08,4.92,0l2.26-.07h0c2.31-.12,3.86,1.09,5.1,2.76a6,6,0,0,1,1.29,3.2c0,.46.06,2.32.06,3.37h5c0-1.37.11-3.05.12-3.39a6,6,0,0,1,1.28-3.2,5.78,5.78,0,0,1,5.1-2.77h0l2.31,0c1.41,0,2.85,0,4.32-.05A7.82,7.82,0,0,0,95.49,10.1Z"/><path class="cls-1" d="M52.06,4.33a5.39,5.39,0,0,0-3.79-2.17C48.1.7,47.69.07,46.77,0c-.28,0-.84.17-.87.32C47,1,47.16,1.84,47.09,1.93s-.2.16-.79.37a5,5,0,0,0-3,1.88c-.32.49-.7,1.38-.48,1.69l0,0s2.69,1.33,8.75.49c1-.21,1.18-.47.81-1.42A3.87,3.87,0,0,0,52.06,4.33Z"/><path class="cls-1" d="M42.93,9.94a1.21,1.21,0,0,0,.47.85c1.37.79,2.78,1.54,4.19,2.26a.86.86,0,0,0,.7,0c1.28-.7,2.56-1.42,3.81-2.16a1,1,0,0,0,.45-.65c0-1,0-2.27,0-3.31a24.12,24.12,0,0,1-9.82-.22S42.88,9.23,42.93,9.94Z"/></g></g></svg>