<svg xmlns="http://www.w3.org/2000/svg" viewBox="0 0 96.22 29.76" style="&#10;    background: black;&#10;"><defs><style>.cls-1{fill:#ffffff;}</style></defs><title>Asset 4</title><g id="Layer_2" data-name="Layer 2"><g id="Livello_1" data-name="Livello 1"><path class="cls-1" d="M28,8.77a6,6,0,0,0-3.2-1.29c-6.34-.12-12.69-.08-19,0a4.5,4.5,0,0,0-2.21.7,12.08,12.08,0,0,0-2.43,2A3.49,3.49,0,0,0,.07,12.09c-.12,2.84,0,5.68,0,8.6H3.43c0-.51,0-.9,0-1.29-.13-2.75,3.21-6.3,6-6.31,3.8,0,7.61,0,11.42,0a5.26,5.26,0,0,1,3.67,1.41c1.83,1.62,3.1,3.5,2.65,6.15h3.58c0-2.24-.17-4.39,0-6.51C31,11.68,29.75,10.07,28,8.77Z"/><path class="cls-1" d="M60.27,19.33a6,6,0,0,1-3.2,1.28c-6.34.12-12.69.08-19,0a4.5,4.5,0,0,1-2.2-.7,12.08,12.08,0,0,1-2.43-2A3.51,3.51,0,0,1,32.33,16c-.11-2.84,0-5.69,0-8.61H35.7c0,.51,0,.9,0,1.29-.13,2.75,3.22,6.3,6,6.31,3.81,0,7.61,0,11.42,0a5.29,5.29,0,0,0,3.68-1.42c1.83-1.61,3.09-3.5,2.65-6.15H63c0,2.24-.16,4.39.05,6.51C63.27,16.41,62,18,60.27,19.33Z"/><path class="cls-1" d="M28,8.77a6,6,0,0,0-3.2-1.29c-6.34-.12-12.69-.08-19,0a4.5,4.5,0,0,0-2.21.7,12.08,12.08,0,0,0-2.43,2A3.49,3.49,0,0,0,.07,12.09c-.12,2.84,0,5.68,0,8.6H3.43c0-.51,0-.9,0-1.29-.13-2.75,3.21-6.3,6-6.31,3.8,0,7.61,0,11.42,0a5.26,5.26,0,0,1,3.67,1.41c1.83,1.62,3.1,3.5,2.65,6.15h3.58c0-2.24-.17-4.39,0-6.51C31,11.68,29.75,10.07,28,8.77Z"/><path class="cls-1" d="M60.27,19.33a6,6,0,0,1-3.2,1.28c-6.34.12-12.69.08-19,0a4.5,4.5,0,0,1-2.2-.7,12.08,12.08,0,0,1-2.43-2A3.51,3.51,0,0,1,32.33,16c-.11-2.84,0-5.69,0-8.61H35.7c0,.51,0,.9,0,1.29-.13,2.75,3.22,6.3,6,6.31,3.81,0,7.61,0,11.42,0a5.29,5.29,0,0,0,3.68-1.42c1.83-1.61,3.09-3.5,2.65-6.15H63c0,2.24-.16,4.39.05,6.51C63.27,16.41,62,18,60.27,19.33Z"/><path class="cls-1" d="M95.49,10.1A6.45,6.45,0,0,0,91.9,7.46H69.41a6,6,0,0,0-4.18,2.73,7,7,0,0,0-.74,1.23c1.68,0,3.32.08,4.92,0l2.26-.07h0c2.31-.12,3.86,1.09,5.1,2.76a6,6,0,0,1,1.29,3.2c0,.46.06,2.32.06,3.37h5c0-1.37.11-3.05.12-3.39a6,6,0,0,1,1.28-3.2,5.78,5.78,0,0,1,5.1-2.77h0l2.31,0c1.41,0,2.85,0,4.32-.05A7.82,7.82,0,0,0,95.49,10.1Z"/><path class="cls-1" d="M52.06,4.33a5.39,5.39,0,0,0-3.79-2.17C48.1.7,47.69.07,46.77,0c-.28,0-.84.17-.87.32C47,1,47.16,1.84,47.09,1.93s-.2.16-.79.37a5,5,0,0,0-3,1.88c-.32.49-.7,1.38-.48,1.69l0,0s2.69,1.33,8.75.49c1-.21,1.18-.47.81-1.42A3.87,3.87,0,0,0,52.06,4.33Z"/><path class="cls-1" d="M42.93,9.94a1.21,1.21,0,0,0,.47.85c1.37.79,2.78,1.54,4.19,2.26a.86.86,0,0,0,.7,0c1.28-.7,2.56-1.42,3.81-2.16a1,1,0,0,0,.45-.65c0-1,0-2.27,0-3.31a24.12,24.12,0,0,1-9.82-.22S42.88,9.23,42.93,9.94Z"/><path class="cls-1" d="M2.25,26.9a.28.28,0,0,1,.1-.09.2.2,0,0,1,.11,0,.24.24,0,0,1,.18.07.41.41,0,0,1,.07.25v.42a.39.39,0,0,1-.07.25.25.25,0,0,1-.18.08.23.23,0,0,1-.16-.06.34.34,0,0,1-.09-.2.34.34,0,0,0-.06-.16.7.7,0,0,0-.28-.17,1.09,1.09,0,0,0-.35-.07,1,1,0,0,0-.41.1.86.86,0,0,0-.32.31.9.9,0,0,0-.14.52v.31A.79.79,0,0,0,.9,29a1,1,0,0,0,.72.24,1.22,1.22,0,0,0,.46-.08A.67.67,0,0,0,2.32,29l.12-.1.1,0a.23.23,0,0,1,.17.07.24.24,0,0,1,.07.18.31.31,0,0,1-.1.21,1,1,0,0,1-.37.27,1.93,1.93,0,0,1-.69.13,1.73,1.73,0,0,1-.79-.18,1.39,1.39,0,0,1-.48-.46,1.23,1.23,0,0,1-.2-.68v-.33a1.54,1.54,0,0,1,.18-.72,1.29,1.29,0,0,1,.5-.51,1.32,1.32,0,0,1,.67-.18,1.75,1.75,0,0,1,.4.05A1.19,1.19,0,0,1,2.25,26.9Z"/><path class="cls-1" d="M7.54,27.27v1.92H8.6v-.46a.43.43,0,0,1,.07-.26.27.27,0,0,1,.36,0,.43.43,0,0,1,.07.26v.95H6.77a.43.43,0,0,1-.26-.06.27.27,0,0,1,0-.36.43.43,0,0,1,.26-.07h.28V27.27H6.77a.37.37,0,0,1-.26-.07A.21.21,0,0,1,6.44,27a.24.24,0,0,1,.07-.18.43.43,0,0,1,.26-.07H7.83a.43.43,0,0,1,.26.06.24.24,0,0,1,.07.18.21.21,0,0,1-.07.18.37.37,0,0,1-.26.07Z"/><path class="cls-1" d="M14.27,27.27v1.92h.5a.39.39,0,0,1,.25.07.24.24,0,0,1,0,.36.4.4,0,0,1-.25.06H13.28a.4.4,0,0,1-.25-.06.24.24,0,0,1,0-.36.39.39,0,0,1,.25-.07h.5V27.27h-.5A.34.34,0,0,1,13,27.2.22.22,0,0,1,13,27a.25.25,0,0,1,.08-.18.39.39,0,0,1,.25-.07h1.49a.4.4,0,0,1,.25.06.25.25,0,0,1,.08.18.22.22,0,0,1-.08.18.34.34,0,0,1-.25.07Z"/><path class="cls-1" d="M19.53,27.73v1.46h.18a.39.39,0,0,1,.25.07.24.24,0,0,1,0,.36.4.4,0,0,1-.25.06h-.65a.4.4,0,0,1-.25-.06.24.24,0,0,1,0-.36.35.35,0,0,1,.23-.07V27.27a.37.37,0,0,1-.2-.08.25.25,0,0,1-.06-.17.24.24,0,0,1,.07-.18.43.43,0,0,1,.26-.07h.54l.67,1.48L21,26.77h.55a.4.4,0,0,1,.25.06.25.25,0,0,1,.08.18.26.26,0,0,1-.07.17.37.37,0,0,1-.2.08v1.92a.33.33,0,0,1,.23.07.24.24,0,0,1,0,.36.4.4,0,0,1-.25.06h-.65a.42.42,0,0,1-.25-.06.27.27,0,0,1,0-.36.41.41,0,0,1,.25-.07h.18V27.73L20.53,29H20.1Z"/><path class="cls-1" d="M25.57,29.19V27.27h-.08a.36.36,0,0,1-.25-.07.21.21,0,0,1-.07-.18.24.24,0,0,1,.07-.18.41.41,0,0,1,.25-.07h1.24a1,1,0,0,1,.71.25.76.76,0,0,1,.27.58.67.67,0,0,1-.07.31.75.75,0,0,1-.19.26.92.92,0,0,1,.35.32.8.8,0,0,1,0,.77.83.83,0,0,1-.16.2,1.06,1.06,0,0,1-.3.16,1.37,1.37,0,0,1-.44.06H25.49a.42.42,0,0,1-.25-.06.27.27,0,0,1,0-.36.41.41,0,0,1,.25-.07ZM26.06,28h.54a.84.84,0,0,0,.49-.14.32.32,0,0,0,.12-.25.28.28,0,0,0-.12-.22.59.59,0,0,0-.39-.1h-.64Zm0,1.21h.85a.73.73,0,0,0,.42-.09.2.2,0,0,0,.1-.19.38.38,0,0,0-.19-.29.82.82,0,0,0-.53-.14h-.65Z"/><path class="cls-1" d="M33.1,27.27v1.92h.49a.43.43,0,0,1,.26.07.27.27,0,0,1,0,.36.43.43,0,0,1-.26.06H32.11a.43.43,0,0,1-.26-.06.27.27,0,0,1,0-.36.43.43,0,0,1,.26-.07h.49V27.27h-.49a.37.37,0,0,1-.26-.07.21.21,0,0,1-.07-.18.24.24,0,0,1,.07-.18.43.43,0,0,1,.26-.07h1.48a.43.43,0,0,1,.26.06.24.24,0,0,1,.07.18.21.21,0,0,1-.07.18.37.37,0,0,1-.26.07Z"/><path class="cls-1" d="M38.51,27.71v1.48h.18a.39.39,0,0,1,.25.07.24.24,0,0,1,0,.36.4.4,0,0,1-.25.06H38a.4.4,0,0,1-.25-.06.24.24,0,0,1,0-.36.35.35,0,0,1,.23-.07V27.27h-.08a.34.34,0,0,1-.25-.07.22.22,0,0,1-.08-.18.25.25,0,0,1,.08-.18.39.39,0,0,1,.25-.07h.57l1.26,2V27.27h-.18a.34.34,0,0,1-.25-.07.22.22,0,0,1-.08-.18.25.25,0,0,1,.08-.18.39.39,0,0,1,.25-.07h.65a.42.42,0,0,1,.25.06.27.27,0,0,1,0,.36.32.32,0,0,1-.23.07v2.41h-.49Z"/><path class="cls-1" d="M46.64,28.79v.66a3.07,3.07,0,0,1-.57.24,2,2,0,0,1-.5.07,2,2,0,0,1-.7-.12,1.16,1.16,0,0,1-.4-.21A1.64,1.64,0,0,1,44.2,29a1.4,1.4,0,0,1-.12-.58V28.1a1.37,1.37,0,0,1,.3-.87,1.32,1.32,0,0,1,1.1-.53,2.33,2.33,0,0,1,.38,0,1.48,1.48,0,0,1,.35.13.28.28,0,0,1,.19-.09.21.21,0,0,1,.17.07.36.36,0,0,1,.07.25v.32a.37.37,0,0,1-.07.26.21.21,0,0,1-.17.07.25.25,0,0,1-.15-.05.27.27,0,0,1-.08-.16.35.35,0,0,0-.31-.29,1,1,0,0,0-.36-.06,1,1,0,0,0-.51.12.88.88,0,0,0-.29.31,1,1,0,0,0-.13.48v.36a.78.78,0,0,0,.23.6,1.08,1.08,0,0,0,.73.21,1.56,1.56,0,0,0,.62-.13v-.35h-.5a.43.43,0,0,1-.26-.07.24.24,0,0,1-.07-.18.23.23,0,0,1,.07-.18.37.37,0,0,1,.26-.07h.87a.39.39,0,0,1,.25.07.23.23,0,0,1,.08.18.25.25,0,0,1-.05.15A.49.49,0,0,1,46.64,28.79Z"/><path class="cls-1" d="M56.09,29.19V27.27H56a.37.37,0,0,1-.26-.07.21.21,0,0,1-.07-.18.24.24,0,0,1,.07-.18.43.43,0,0,1,.26-.07h1.23A1,1,0,0,1,58,27a.76.76,0,0,1,.27.58.81.81,0,0,1-.06.31.91.91,0,0,1-.19.26,1.09,1.09,0,0,1,.35.32.88.88,0,0,1,.11.42.78.78,0,0,1-.08.35.53.53,0,0,1-.16.2,1.15,1.15,0,0,1-.29.16,1.44,1.44,0,0,1-.45.06H56a.43.43,0,0,1-.26-.06.24.24,0,0,1-.07-.18.22.22,0,0,1,.08-.18.39.39,0,0,1,.25-.07Zm.5-1.21h.54a.83.83,0,0,0,.48-.14.33.33,0,0,0,.13-.25.28.28,0,0,0-.12-.22.63.63,0,0,0-.39-.1h-.64Zm0,1.21h.85a.73.73,0,0,0,.42-.09.21.21,0,0,0,.09-.19.39.39,0,0,0-.18-.29.84.84,0,0,0-.53-.14h-.65Z"/><path class="cls-1" d="M62.87,28.57v.62H63a.43.43,0,0,1,.26.07.27.27,0,0,1,0,.36.43.43,0,0,1-.26.06H62.3a.43.43,0,0,1-.26-.06.24.24,0,0,1-.07-.18.22.22,0,0,1,.08-.18.39.39,0,0,1,.25-.07h.07V27.27H62.3A.37.37,0,0,1,62,27.2.21.21,0,0,1,62,27a.24.24,0,0,1,.07-.18.43.43,0,0,1,.26-.07h1.11a1.13,1.13,0,0,1,.81.26.8.8,0,0,1,.28.62.68.68,0,0,1-.13.42,1.1,1.1,0,0,1-.41.34,2.28,2.28,0,0,1,.34.35l.3.42a.57.57,0,0,1,.24,0,.25.25,0,0,1,.11.21.24.24,0,0,1-.07.18.43.43,0,0,1-.26.06h-.28a3.1,3.1,0,0,0-1-1.11Zm0-.49h.38a1.12,1.12,0,0,0,.38-.06.93.93,0,0,0,.31-.18.32.32,0,0,0,.07-.19.33.33,0,0,0-.15-.26.65.65,0,0,0-.43-.12h-.56Z"/><path class="cls-1" d="M70.77,27.27v1.39a1.08,1.08,0,0,1-.32.78,1.12,1.12,0,0,1-.79.32,1.22,1.22,0,0,1-.43-.08,1.41,1.41,0,0,1-.36-.24,1.21,1.21,0,0,1-.25-.32,1,1,0,0,1-.09-.46V27.27a.32.32,0,0,1-.23-.07.27.27,0,0,1,0-.36.43.43,0,0,1,.26-.06h.64a.39.39,0,0,1,.25.07.25.25,0,0,1,.08.18.22.22,0,0,1-.08.18.34.34,0,0,1-.25.07H69v1.44a.52.52,0,0,0,.19.39.64.64,0,0,0,.44.17.59.59,0,0,0,.32-.09.56.56,0,0,0,.25-.23.48.48,0,0,0,.06-.24V27.27H70.1a.36.36,0,0,1-.25-.07.21.21,0,0,1-.07-.18.24.24,0,0,1,.07-.18.41.41,0,0,1,.25-.07h.65a.4.4,0,0,1,.25.06.24.24,0,0,1,0,.36A.3.3,0,0,1,70.77,27.27Z"/><path class="cls-1" d="M75.21,29.56l-.11.1-.1,0a.22.22,0,0,1-.18-.08.39.39,0,0,1-.07-.25V29a.39.39,0,0,1,.07-.25.25.25,0,0,1,.18-.08.25.25,0,0,1,.15,0,.27.27,0,0,1,.09.15.57.57,0,0,0,.06.15.78.78,0,0,0,.25.15,1,1,0,0,0,.39.08.91.91,0,0,0,.54-.16.27.27,0,0,0,.13-.23.27.27,0,0,0-.06-.17.42.42,0,0,0-.21-.13,2.52,2.52,0,0,0-.43-.1,2.37,2.37,0,0,1-.61-.18A.8.8,0,0,1,75,28a.78.78,0,0,1-.12-.41.79.79,0,0,1,.3-.62,1.08,1.08,0,0,1,.77-.27,2,2,0,0,1,.35,0,1.28,1.28,0,0,1,.29.13.28.28,0,0,1,.19-.09.23.23,0,0,1,.18.07.38.38,0,0,1,.07.26v.37a.36.36,0,0,1-.07.25.23.23,0,0,1-.18.07.24.24,0,0,1-.16-.05.27.27,0,0,1-.07-.16.45.45,0,0,0-.07-.18.57.57,0,0,0-.21-.15.79.79,0,0,0-.32-.07.66.66,0,0,0-.42.13.33.33,0,0,0-.16.26.23.23,0,0,0,.07.17.44.44,0,0,0,.18.14l.46.1a2.76,2.76,0,0,1,.58.17.82.82,0,0,1,.34.27.78.78,0,0,1,.13.46.73.73,0,0,1-.25.58,1.32,1.32,0,0,1-.87.29,1.75,1.75,0,0,1-.4-.05A1.31,1.31,0,0,1,75.21,29.56Z"/><path class="cls-1" d="M82.74,28.48h-1v.71h.07a.43.43,0,0,1,.26.07.27.27,0,0,1,0,.36.43.43,0,0,1-.26.06h-.6a.4.4,0,0,1-.25-.06.25.25,0,0,1-.08-.18.24.24,0,0,1,.12-.21.47.47,0,0,1,.25,0V27.27a.34.34,0,0,1-.2-.08.26.26,0,0,1-.07-.17.25.25,0,0,1,.08-.18.39.39,0,0,1,.25-.07h.5a.43.43,0,0,1,.26.06.24.24,0,0,1,.07.18.21.21,0,0,1-.07.18.37.37,0,0,1-.26.07h-.07V28h1v-.72h-.08a.34.34,0,0,1-.25-.07.22.22,0,0,1-.08-.18.25.25,0,0,1,.08-.18.39.39,0,0,1,.25-.07h.5a.43.43,0,0,1,.26.06.24.24,0,0,1,.07.18.25.25,0,0,1-.06.17.37.37,0,0,1-.2.08v1.92c.13,0,.21,0,.24,0a.24.24,0,0,1,.12.21.24.24,0,0,1-.07.18.43.43,0,0,1-.26.06h-.6a.4.4,0,0,1-.25-.06.24.24,0,0,1,0-.36.39.39,0,0,1,.25-.07h.08Z"/><path class="cls-1" d="M88,28.47v.72h1.25v-.26a.43.43,0,0,1,.07-.26.27.27,0,0,1,.36,0,.43.43,0,0,1,.07.26v.75H87.4a.4.4,0,0,1-.25-.06.24.24,0,0,1,0-.36.39.39,0,0,1,.25-.07h.08V27.27H87.4a.34.34,0,0,1-.25-.07.22.22,0,0,1-.08-.18.25.25,0,0,1,.08-.18.39.39,0,0,1,.25-.07h2.21v.75a.36.36,0,0,1-.07.25.21.21,0,0,1-.18.07.24.24,0,0,1-.18-.07.42.42,0,0,1-.06-.25v-.26H88V28h.43a.47.47,0,0,1,0-.25.24.24,0,0,1,.21-.12.21.21,0,0,1,.17.08.34.34,0,0,1,.07.25v.57a.39.39,0,0,1,0,.22.24.24,0,0,1-.2.11.24.24,0,0,1-.21-.12.47.47,0,0,1,0-.25Z"/><path class="cls-1" d="M94,29.56l-.1.1-.1,0a.19.19,0,0,1-.18-.08.34.34,0,0,1-.07-.25V29a.34.34,0,0,1,.07-.25.22.22,0,0,1,.18-.08.22.22,0,0,1,.14,0,.27.27,0,0,1,.09.15.53.53,0,0,0,.07.15.68.68,0,0,0,.25.15.92.92,0,0,0,.38.08.91.91,0,0,0,.54-.16.28.28,0,0,0,.14-.23.23.23,0,0,0-.07-.17.42.42,0,0,0-.21-.13,2.28,2.28,0,0,0-.43-.1,2.37,2.37,0,0,1-.61-.18.84.84,0,0,1-.32-.3.78.78,0,0,1-.12-.41A.81.81,0,0,1,94,27a1.1,1.1,0,0,1,.77-.27,1.87,1.87,0,0,1,.35,0,1.36,1.36,0,0,1,.3.13.26.26,0,0,1,.19-.09.21.21,0,0,1,.17.07.38.38,0,0,1,.07.26v.37a.36.36,0,0,1-.07.25.21.21,0,0,1-.17.07.22.22,0,0,1-.16-.05.27.27,0,0,1-.08-.16.45.45,0,0,0-.07-.18.44.44,0,0,0-.21-.15.79.79,0,0,0-.32-.07.68.68,0,0,0-.42.13.34.34,0,0,0-.15.26.27.27,0,0,0,.06.17.41.41,0,0,0,.19.14l.46.1a3,3,0,0,1,.58.17.86.86,0,0,1,.33.27.78.78,0,0,1,.14.46.74.74,0,0,1-.26.58,1.32,1.32,0,0,1-.87.29,1.67,1.67,0,0,1-.39-.05A1.37,1.37,0,0,1,94,29.56Z"/></g></g></svg>